<svg xmlns="http://www.w3.org/2000/svg" width="400" height="400" viewBox="0 0 400 400">
  <defs>
    <clipPath id="circle-clip">
      <circle cx="200" cy="200" r="195"/>
    </clipPath>
  </defs>
  
  <!-- White background for transparency -->
  <circle cx="200" cy="200" r="200" fill="white"/>
  
  <!-- Main dark green circle -->
  <circle cx="200" cy="200" r="195" fill="#0d3830"/>
  
  <!-- Outer gold ring -->
  <circle cx="200" cy="200" r="188" fill="none" stroke="#c8973a" stroke-width="1.5"/>
  <circle cx="200" cy="200" r="183" fill="none" stroke="#c8973a" stroke-width="0.6"/>

  <!-- Stars scattered around top -->
  <!-- Top center star -->
  <g transform="translate(200,28)" fill="#c8973a">
    <polygon points="0,-7 1.5,-2.5 6,-2.5 2.5,1 4,6 0,3 -4,6 -2.5,1 -6,-2.5 -1.5,-2.5" />
  </g>
  <!-- Top left stars -->
  <g transform="translate(110,55)" fill="#c8973a">
    <polygon points="0,-5 1,-1.8 4.5,-1.8 1.8,0.8 3,4.5 0,2.2 -3,4.5 -1.8,0.8 -4.5,-1.8 -1,-1.8" />
  </g>
  <g transform="translate(60,110)" fill="#c8973a">
    <polygon points="0,-5 1,-1.8 4.5,-1.8 1.8,0.8 3,4.5 0,2.2 -3,4.5 -1.8,0.8 -4.5,-1.8 -1,-1.8" />
  </g>
  <!-- Top right stars -->
  <g transform="translate(290,55)" fill="#c8973a">
    <polygon points="0,-5 1,-1.8 4.5,-1.8 1.8,0.8 3,4.5 0,2.2 -3,4.5 -1.8,0.8 -4.5,-1.8 -1,-1.8" />
  </g>
  <g transform="translate(340,110)" fill="#c8973a">
    <polygon points="0,-5 1,-1.8 4.5,-1.8 1.8,0.8 3,4.5 0,2.2 -3,4.5 -1.8,0.8 -4.5,-1.8 -1,-1.8" />
  </g>
  <!-- Side stars (left and right) -->
  <g transform="translate(20,200)" fill="#c8973a">
    <polygon points="0,-7 1.5,-2.5 6,-2.5 2.5,1 4,6 0,3 -4,6 -2.5,1 -6,-2.5 -1.5,-2.5" />
  </g>
  <g transform="translate(380,200)" fill="#c8973a">
    <polygon points="0,-7 1.5,-2.5 6,-2.5 2.5,1 4,6 0,3 -4,6 -2.5,1 -6,-2.5 -1.5,-2.5" />
  </g>
  <!-- Bottom star -->
  <g transform="translate(200,372)" fill="#c8973a">
    <polygon points="0,-7 1.5,-2.5 6,-2.5 2.5,1 4,6 0,3 -4,6 -2.5,1 -6,-2.5 -1.5,-2.5" />
  </g>
  <!-- Small dot stars -->
  <circle cx="145" cy="75" r="2" fill="white" opacity="0.7"/>
  <circle cx="170" cy="95" r="1.5" fill="white" opacity="0.5"/>
  <circle cx="130" cy="100" r="1.5" fill="white" opacity="0.6"/>
  <circle cx="255" cy="75" r="2" fill="white" opacity="0.7"/>
  <circle cx="230" cy="95" r="1.5" fill="white" opacity="0.5"/>
  <circle cx="270" cy="100" r="1.5" fill="white" opacity="0.6"/>
  <circle cx="160" cy="60" r="1.5" fill="white" opacity="0.4"/>
  <circle cx="240" cy="60" r="1.5" fill="white" opacity="0.4"/>
  <circle cx="200" cy="85" r="1.5" fill="white" opacity="0.5"/>

  <!-- Crescent moon -->
  <g transform="translate(185,75)">
    <circle cx="0" cy="0" r="22" fill="#c8973a"/>
    <circle cx="12" cy="-6" r="18" fill="#0d3830"/>
  </g>
  <!-- Small star next to moon -->
  <g transform="translate(217,62)" fill="#c8973a">
    <polygon points="0,-5 1,-1.8 4.5,-1.8 1.8,0.8 3,4.5 0,2.2 -3,4.5 -1.8,0.8 -4.5,-1.8 -1,-1.8" />
  </g>

  <!-- Gold decorative rectangle frame -->
  <rect x="52" y="155" width="296" height="175" fill="none" stroke="#c8973a" stroke-width="1.2"/>
  <rect x="57" y="160" width="286" height="165" fill="none" stroke="#c8973a" stroke-width="0.5"/>
  
  <!-- Corner dots on rectangle -->
  <circle cx="52" cy="155" r="3" fill="#c8973a"/>
  <circle cx="348" cy="155" r="3" fill="#c8973a"/>
  <circle cx="52" cy="330" r="3" fill="#c8973a"/>
  <circle cx="348" cy="330" r="3" fill="#c8973a"/>

  <!-- Gold horizontal decorative lines above frame -->
  <line x1="65" y1="148" x2="335" y2="148" stroke="#c8973a" stroke-width="0.8"/>
  <!-- Diamond decorations on lines -->
  <polygon points="200,144 203,148 200,152 197,148" fill="#c8973a"/>
  <polygon points="130,144 133,148 130,152 127,148" fill="#c8973a"/>
  <polygon points="270,144 273,148 270,152 267,148" fill="#c8973a"/>

  <!-- ZAINAB text -->
  <text x="200" y="222" 
    font-family="Georgia, 'Times New Roman', serif" 
    font-size="62" 
    font-weight="bold" 
    fill="white" 
    text-anchor="middle" 
    letter-spacing="4">ZAINAB</text>

  <!-- Gold divider line under ZAINAB -->
  <line x1="80" y1="235" x2="320" y2="235" stroke="#c8973a" stroke-width="1.2"/>
  <polygon points="200,231 203,235 200,239 197,235" fill="#c8973a"/>

  <!-- COLLECTIONS text -->
  <text x="200" y="265" 
    font-family="Georgia, 'Times New Roman', serif" 
    font-size="22" 
    fill="#c8973a" 
    text-anchor="middle" 
    letter-spacing="8">COLLECTIONS</text>

  <!-- Gold divider line under COLLECTIONS -->
  <line x1="80" y1="275" x2="320" y2="275" stroke="#c8973a" stroke-width="1"/>

  <!-- Modest Fashion · Mombasa, Kenya -->
  <text x="200" y="298" 
    font-family="Georgia, 'Times New Roman', serif" 
    font-size="13.5" 
    font-style="italic"
    fill="#e8dcc8" 
    text-anchor="middle" 
    letter-spacing="1">Modest Fashion · Mombasa, Kenya 🇰🇪</text>

  <!-- Arabic text (Bismillah) -->
  <text x="200" y="318" 
    font-family="Georgia, serif" 
    font-size="13" 
    fill="#c8973a" 
    text-anchor="middle"
    opacity="0.85">بسم الله الرحمن الرحيم</text>

  <!-- Bottom star decorations inside frame -->
  <g transform="translate(90,335)" fill="#c8973a">
    <polygon points="0,-4 0.8,-1.5 3.5,-1.5 1.4,0.6 2.3,3.5 0,1.7 -2.3,3.5 -1.4,0.6 -3.5,-1.5 -0.8,-1.5" />
  </g>
  <g transform="translate(310,335)" fill="#c8973a">
    <polygon points="0,-4 0.8,-1.5 3.5,-1.5 1.4,0.6 2.3,3.5 0,1.7 -2.3,3.5 -1.4,0.6 -3.5,-1.5 -0.8,-1.5" />
  </g>
  <line x1="100" y1="335" x2="185" y2="335" stroke="#c8973a" stroke-width="0.7"/>
  <line x1="215" y1="335" x2="300" y2="335" stroke="#c8973a" stroke-width="0.7"/>
  <circle cx="200" cy="335" r="2" fill="#c8973a"/>

</svg>